<svg width="142" height="44" viewBox="0 0 142 44" fill="none" xmlns="http://www.w3.org/2000/svg">
<g id="FedEx Logo" style="mix-blend-mode:luminosity" clip-path="url(#clip0_1180_996)">
<g id="g15">
<g id="g17">
<path id="polygon19" d="M105.597 42.6831L117.439 29.1361L105.597 15.5873H118.091L123.957 22.1684L129.604 15.5873H141.663L129.877 29.0802L141.825 42.6831H129.279L123.467 36.0479L117.71 42.6831H105.597Z" fill="#FF6600"/>
<path id="polygon21" d="M105.597 9.51343H92.1843V15.5873H105.597V24.7412H92.1843V33.1433H105.597V42.6831H82.3264V0H105.597V9.51343Z" fill="#FF6600"/>
</g>
<path id="path23" d="M72.5101 0V17.468H72.4021C70.2289 14.9248 67.5136 14.041 64.363 14.041C57.9095 14.041 53.0481 18.5077 51.3416 24.4131C49.3956 17.9061 44.3769 13.9191 36.9348 13.9191C30.8912 13.9191 26.1187 16.681 23.6282 21.1816V15.5879H11.1359V9.51469H24.7685V0H0V42.6838H11.1359V24.7412H22.2353C21.9044 26.0593 21.7279 27.4705 21.7279 28.9595C21.7279 37.8633 28.4086 44.1106 36.9348 44.1106C44.1046 44.1106 48.8295 40.6837 51.3287 34.4357H41.7857C40.4947 36.3126 39.5155 36.8701 36.9348 36.8701C33.9423 36.8701 31.3622 34.2119 31.3622 31.0609H50.794C51.6368 38.1329 57.0476 44.2319 64.4729 44.2319C67.676 44.2319 70.6086 42.6278 72.4021 39.9193H72.5101V42.6825H82.3267V0H72.5101ZM31.6722 24.8688C32.2914 22.1578 34.3566 20.3858 36.9348 20.3858C39.773 20.3858 41.7332 22.1031 42.2487 24.8688C42.466 24.8688 31.6722 24.8688 31.6722 24.8688ZM66.5529 36.1843C62.9344 36.1843 60.6859 32.7517 60.6859 29.1676C60.6859 25.3365 62.6418 21.6524 66.5529 21.6524C70.6086 21.6524 72.2243 25.3365 72.2243 29.1676C72.2237 32.8007 70.5117 36.1843 66.5529 36.1843Z" fill="#652C8F"/>
</g>
</g>
<defs>
<clipPath id="clip0_1180_996">
<rect width="142" height="44" fill="white"/>
</clipPath>
</defs>
</svg>
