<svg width="150" height="50" viewBox="0 0 150 50" fill="none" xmlns="http://www.w3.org/2000/svg">
<g id="Google Logo" style="mix-blend-mode:luminosity">
<path id="Vector" d="M63.8327 25.6413C63.8327 32.5815 58.3235 37.6956 51.5625 37.6956C44.8014 37.6956 39.2922 32.5815 39.2922 25.6413C39.2922 18.6521 44.8014 13.5869 51.5625 13.5869C58.3235 13.5869 63.8327 18.6521 63.8327 25.6413ZM58.4614 25.6413C58.4614 21.3043 55.2683 18.3369 51.5625 18.3369C47.8566 18.3369 44.6636 21.3043 44.6636 25.6413C44.6636 29.9347 47.8566 32.9456 51.5625 32.9456C55.2683 32.9456 58.4614 29.9293 58.4614 25.6413Z" fill="#EA4335"/>
<path id="Vector_2" d="M90.3032 25.6413C90.3032 32.5815 84.794 37.6956 78.033 37.6956C71.272 37.6956 65.7628 32.5815 65.7628 25.6413C65.7628 18.6576 71.272 13.5869 78.033 13.5869C84.794 13.5869 90.3032 18.6521 90.3032 25.6413ZM84.9319 25.6413C84.9319 21.3043 81.7389 18.3369 78.033 18.3369C74.3271 18.3369 71.1341 21.3043 71.1341 25.6413C71.1341 29.9347 74.3271 32.9456 78.033 32.9456C81.7389 32.9456 84.9319 29.9293 84.9319 25.6413Z" fill="#FBBC05"/>
<path id="Vector_3" d="M115.671 14.3152V35.9565C115.671 44.8587 110.344 48.4945 104.046 48.4945C98.1175 48.4945 94.5495 44.5869 93.2039 41.3913L97.8804 39.4728C98.7131 41.4347 100.754 43.75 104.04 43.75C108.072 43.75 110.57 41.2989 110.57 36.6847V34.951H110.382C109.18 36.413 106.864 37.6902 103.941 37.6902C97.8252 37.6902 92.2223 32.4402 92.2223 25.6847C92.2223 18.8804 97.8252 13.5869 103.941 13.5869C106.858 13.5869 109.175 14.8641 110.382 16.2826H110.57V14.3206H115.671V14.3152ZM110.95 25.6847C110.95 21.4402 108.077 18.3369 104.421 18.3369C100.715 18.3369 97.6102 21.4402 97.6102 25.6847C97.6102 29.8858 100.715 32.9456 104.421 32.9456C108.077 32.9456 110.95 29.8858 110.95 25.6847Z" fill="#4285F4"/>
<path id="Vector_4" d="M124.081 1.63049V36.9566H118.842V1.63049H124.081Z" fill="#34A853"/>
<path id="Vector_5" d="M144.496 29.6087L148.666 32.3478C147.32 34.3098 144.077 37.6902 138.474 37.6902C131.526 37.6902 126.337 32.3968 126.337 25.6359C126.337 18.4674 131.57 13.5815 137.873 13.5815C144.221 13.5815 147.326 18.5598 148.34 21.25L148.897 22.6196L132.546 29.2935C133.798 31.712 135.745 32.9457 138.474 32.9457C141.21 32.9457 143.107 31.6196 144.496 29.6087ZM131.664 25.2718L142.594 20.7989C141.993 19.2935 140.184 18.2446 138.055 18.2446C135.326 18.2446 131.526 20.6196 131.664 25.2718Z" fill="#EA4335"/>
<path id="Vector_6" d="M19.4616 22.5055V17.3914H36.9487C37.1196 18.2827 37.2079 19.337 37.2079 20.4783C37.2079 24.3153 36.1435 29.0598 32.7134 32.4403C29.377 35.8642 25.1141 37.6903 19.4671 37.6903C9.00016 37.6903 0.198685 29.2881 0.198685 18.9729C0.198685 8.65767 9.00016 0.255493 19.4671 0.255493C25.2575 0.255493 29.3825 2.49462 32.4818 5.4131L28.82 9.0218C26.5976 6.96745 23.5866 5.36962 19.4616 5.36962C11.8182 5.36962 5.84023 11.4403 5.84023 18.9729C5.84023 26.5055 11.8182 32.5761 19.4616 32.5761C24.4193 32.5761 27.2428 30.6142 29.0516 28.8316C30.5185 27.3859 31.4836 25.3207 31.8641 22.5001L19.4616 22.5055Z" fill="#4285F4"/>
</g>
</svg>
