<svg width="56" height="56" viewBox="0 0 56 56" fill="none" xmlns="http://www.w3.org/2000/svg">
<g id="Group 50">
<g id="AppWindow">
<path id="Vector" d="M47.25 10.5H8.75C7.7835 10.5 7 11.2835 7 12.25V43.75C7 44.7165 7.7835 45.5 8.75 45.5H47.25C48.2165 45.5 49 44.7165 49 43.75V12.25C49 11.2835 48.2165 10.5 47.25 10.5Z" stroke="#FC5F45" stroke-width="2" stroke-linecap="round" stroke-linejoin="round"/>
<path id="Vector_2" d="M14.875 21C16.3247 21 17.5 19.8247 17.5 18.375C17.5 16.9253 16.3247 15.75 14.875 15.75C13.4253 15.75 12.25 16.9253 12.25 18.375C12.25 19.8247 13.4253 21 14.875 21Z" fill="#FC5F45"/>
<path id="Vector_3" d="M23.625 21C25.0747 21 26.25 19.8247 26.25 18.375C26.25 16.9253 25.0747 15.75 23.625 15.75C22.1753 15.75 21 16.9253 21 18.375C21 19.8247 22.1753 21 23.625 21Z" fill="#FC5F45"/>
</g>
</g>
</svg>
