<svg width="149" height="44" viewBox="0 0 149 44" fill="none" xmlns="http://www.w3.org/2000/svg">
<g id="Hubspot Logo" style="mix-blend-mode:luminosity" clip-path="url(#clip0_1180_969)">
<g id="Layer 2">
<g id="Group">
<path id="Vector" d="M16.1359 7.28308V19.6943H5.19454V7.28308H0V36.9098H5.19454V24.9016H16.1359V36.9098H21.3304V7.28308H16.1359Z" fill="#33475B"/>
<path id="Vector_2" d="M37.9549 27.3329C37.9549 28.5203 37.5022 29.659 36.6963 30.4986C35.8903 31.3381 34.7973 31.8098 33.6575 31.8098C32.5178 31.8098 31.4247 31.3381 30.6188 30.4986C29.8129 29.659 29.3602 28.5203 29.3602 27.3329V14.6433H24.4328V27.3329C24.4328 29.8792 25.4038 32.3212 27.1321 34.1217C28.8604 35.9221 31.2045 36.9336 33.6486 36.9336C36.0928 36.9336 38.4369 35.9221 40.1652 34.1217C41.8935 32.3212 42.8644 29.8792 42.8644 27.3329V14.6433H37.9549V27.3329Z" fill="#33475B"/>
<path id="Vector_3" d="M74.462 15.9505C74.462 13.3495 76.1138 12.5249 77.9234 12.5249C79.3817 12.5249 81.3084 13.6809 82.5682 15.0835L85.7954 11.1223C84.1843 8.85271 80.9164 7.28308 78.2415 7.28308C72.8968 7.28308 69.0308 10.5443 69.0308 15.9505C69.0308 25.9808 80.7993 22.7991 80.7993 28.4121C80.7993 30.1435 79.1857 31.6733 77.338 31.6733C74.4239 31.6733 73.4796 30.1885 72.1409 28.6189L68.56 32.4979C70.8506 35.4277 73.6756 36.9151 77.0606 36.9151C82.1381 36.9151 86.2229 33.6141 86.2229 28.4545C86.2229 17.3186 74.4544 20.7787 74.4544 15.9505" fill="#33475B"/>
<path id="Vector_4" d="M147.267 32.1771C144.355 32.1771 143.528 30.8647 143.528 28.8549V19.9595H148.053V15.4521H143.528V9.505L138.532 11.8409V29.9606C138.532 34.5952 141.601 36.9311 145.811 36.9311C146.471 36.9436 147.131 36.8886 147.781 36.7667L149 32.0923C148.45 32.1321 147.819 32.1718 147.267 32.1718" fill="#33475B"/>
<path id="Vector_5" d="M56.7098 14.7918C54.2691 14.7918 52.5664 15.5289 50.9197 17.2125V7.46069H45.9848V25.5353C45.9848 32.3017 50.6805 36.9363 55.9564 36.9363C61.8102 36.9363 66.9589 32.2195 66.9589 25.8667C66.9589 19.5935 62.2199 14.7945 56.7098 14.7945V14.7918ZM56.6793 31.7634C55.5718 31.7634 54.4893 31.4213 53.5685 30.7804C52.6477 30.1394 51.9301 29.2284 51.5063 28.1626C51.0825 27.0967 50.9716 25.9239 51.1876 24.7924C51.4037 23.6609 51.937 22.6215 52.72 21.8057C53.5031 20.99 54.5008 20.4344 55.5869 20.2094C56.673 19.9843 57.7989 20.0998 58.822 20.5413C59.8451 20.9828 60.7196 21.7304 61.3348 22.6897C61.9501 23.6489 62.2785 24.7767 62.2785 25.9304C62.2785 27.4774 61.6885 28.961 60.6385 30.055C59.5884 31.1489 58.1643 31.7634 56.6793 31.7634Z" fill="#33475B"/>
<path id="Vector_6" d="M110.294 25.5963C110.294 19.233 105.156 14.5267 99.2916 14.5267C94.0156 14.5267 89.3199 19.1614 89.3199 25.9278V44.0129H94.2549V34.2478C95.899 35.9288 97.6042 36.6686 100.042 36.6686C105.553 36.6686 110.292 31.8722 110.292 25.5963H110.294ZM105.621 25.5327C105.621 26.6864 105.293 27.8141 104.678 28.7734C104.062 29.7326 103.188 30.4803 102.165 30.9218C101.142 31.3632 100.016 31.4788 98.9297 31.2537C97.8436 31.0286 96.8459 30.4731 96.0628 29.6573C95.2798 28.8415 94.7465 27.8022 94.5304 26.6707C94.3144 25.5392 94.4253 24.3663 94.8491 23.3005C95.2729 22.2346 95.9905 21.3236 96.9113 20.6827C97.8321 20.0417 98.9146 19.6996 100.022 19.6996C101.507 19.6996 102.931 20.3142 103.981 21.4081C105.031 22.502 105.621 23.9857 105.621 25.5327Z" fill="#33475B"/>
</g>
<g id="Group_2">
<path id="Vector_7" d="M126.237 14.2775V9.11259C126.892 8.79366 127.447 8.28742 127.836 7.65279C128.226 7.01817 128.435 6.28128 128.438 5.52789V5.40858C128.438 4.35379 128.036 3.34219 127.32 2.59634C126.604 1.85049 125.633 1.43148 124.621 1.43148H124.506C123.494 1.43148 122.523 1.85049 121.807 2.59634C121.091 3.34219 120.688 4.35379 120.688 5.40858V5.52789C120.692 6.28128 120.901 7.01817 121.29 7.65279C121.68 8.28742 122.235 8.79366 122.89 9.11259V14.2775C121.007 14.5776 119.233 15.3908 117.749 16.6346L104.153 5.60213C104.249 5.23832 104.301 4.86322 104.306 4.48589C104.307 3.59955 104.056 2.73265 103.585 1.99484C103.113 1.25704 102.442 0.681475 101.657 0.340954C100.871 0.000432398 100.007 -0.0897482 99.1719 0.0818183C98.3372 0.253385 97.5701 0.678991 96.9676 1.3048C96.3651 1.93062 95.9543 2.72852 95.7871 3.59759C95.62 4.46666 95.704 5.36785 96.0285 6.18718C96.3531 7.0065 96.9036 7.70716 97.6104 8.20051C98.3172 8.69386 99.1486 8.95775 99.9994 8.9588C100.743 8.95534 101.474 8.74873 102.117 8.35959L115.507 19.2118C114.304 21.1048 113.676 23.3316 113.705 25.6017C113.735 27.8719 114.42 30.0801 115.672 31.9385L111.6 36.1807C111.271 36.0712 110.928 36.0131 110.582 36.0084C109.883 36.0089 109.201 36.2251 108.62 36.6297C108.04 37.0343 107.587 37.6091 107.32 38.2814C107.053 38.9538 106.983 39.6935 107.12 40.4072C107.256 41.1208 107.593 41.7763 108.087 42.2908C108.58 42.8053 109.21 43.1558 109.895 43.2978C110.58 43.4399 111.29 43.3673 111.935 43.0891C112.581 42.8108 113.132 42.3396 113.521 41.7348C113.909 41.13 114.117 40.4188 114.117 39.6912C114.113 39.3311 114.057 38.9737 113.952 38.6306L117.98 34.4335C119.294 35.4866 120.822 36.2126 122.447 36.5558C124.071 36.899 125.75 36.8502 127.353 36.4133C128.957 35.9764 130.444 35.1628 131.699 34.0351C132.954 32.9073 133.945 31.4951 134.596 29.9068C135.247 28.3184 135.54 26.596 135.453 24.8714C135.366 23.1469 134.901 21.466 134.094 19.9574C133.287 18.4488 132.16 17.1527 130.798 16.1682C129.436 15.1837 127.876 14.5369 126.237 14.2775ZM124.567 31.2624C123.465 31.2613 122.388 30.92 121.472 30.2814C120.556 29.6429 119.843 28.7358 119.422 27.6748C119 26.6139 118.891 25.4467 119.106 24.3207C119.321 23.1948 119.852 22.1607 120.632 21.349C121.411 20.5374 122.404 19.9847 123.485 19.7608C124.566 19.5368 125.686 19.6518 126.705 20.091C127.723 20.5302 128.593 21.2741 129.206 22.2285C129.818 23.1829 130.146 24.3051 130.146 25.4532C130.146 26.9932 129.559 28.4701 128.514 29.559C127.468 30.648 126.051 31.2597 124.572 31.2597" fill="#FF7A59"/>
</g>
</g>
</g>
<defs>
<clipPath id="clip0_1180_969">
<rect width="149" height="44" fill="white"/>
</clipPath>
</defs>
</svg>
