<svg width="217" height="45" viewBox="0 0 217 45" fill="none" xmlns="http://www.w3.org/2000/svg">
<g id="Microsoft Logo" style="mix-blend-mode:luminosity" clip-path="url(#clip0_1180_987)">
<path id="Vector" d="M76.5966 25.9186L75.3033 29.4767H75.1955C74.9799 28.6744 74.5847 27.4535 73.938 25.9883L67.0041 9.06974H60.2139V36.0349H64.7048V19.3953C64.7048 18.3488 64.7048 17.1628 64.6688 15.6976C64.6329 14.9651 64.5611 14.4069 64.5251 13.9883H64.6329C64.8485 15.0349 65.1 15.8023 65.2796 16.2907L73.6147 35.9651H76.7763L85.0395 16.1162C85.2192 15.6628 85.3988 14.7558 85.5784 13.9883H85.6862C85.5784 15.9767 85.5066 17.7558 85.4706 18.8372V35.9302H90.249V8.99997H83.7102L76.5966 25.9186ZM94.7758 16.6046H99.4463V35.9302H94.7758V16.6046ZM97.147 8.44183C96.3566 8.44183 95.7099 8.7209 95.171 9.20927C94.6321 9.69764 94.3447 10.3255 94.3447 11.093C94.3447 11.8255 94.6321 12.4535 95.171 12.9418C95.7099 13.4302 96.3566 13.6744 97.147 13.6744C97.9374 13.6744 98.62 13.3953 99.123 12.9418C99.6619 12.4535 99.9493 11.8255 99.9493 11.093C99.9493 10.3604 99.6619 9.73253 99.123 9.20927C98.6559 8.7209 97.9733 8.44183 97.147 8.44183ZM116.009 16.4302C115.146 16.2558 114.248 16.1511 113.386 16.1511C111.266 16.1511 109.326 16.6046 107.71 17.5116C106.093 18.4186 104.799 19.6744 103.973 21.2442C103.111 22.8488 102.68 24.6976 102.68 26.8255C102.68 28.6744 103.111 30.3139 103.937 31.8139C104.764 33.279 105.913 34.4651 107.458 35.2674C108.931 36.0697 110.656 36.4883 112.596 36.4883C114.823 36.4883 116.727 36.0348 118.236 35.1976L118.272 35.1628V30.9767L118.093 31.1162C117.41 31.6046 116.619 32.0232 115.829 32.2674C115.003 32.5465 114.248 32.686 113.602 32.686C111.733 32.686 110.26 32.1628 109.218 31.0116C108.141 29.8953 107.602 28.3604 107.602 26.4418C107.602 24.4535 108.141 22.8837 109.254 21.7325C110.368 20.5814 111.841 19.9883 113.638 19.9883C115.146 19.9883 116.691 20.4767 118.093 21.4535L118.272 21.593V17.1628L118.236 17.1279C117.625 16.8837 116.943 16.6046 116.009 16.4302ZM131.421 16.2907C130.272 16.2907 129.194 16.6395 128.26 17.3721C127.469 18 126.931 18.9069 126.464 19.9883H126.428V16.6046H121.757V35.9302H126.428V26.0581C126.428 24.3837 126.787 22.9883 127.577 21.9767C128.368 20.9302 129.374 20.4069 130.595 20.4069C131.026 20.4069 131.457 20.5116 131.996 20.5814C132.499 20.7209 132.859 20.8604 133.11 21.0349L133.29 21.1744V16.6395L133.182 16.6046C132.859 16.3953 132.212 16.2907 131.421 16.2907ZM144.14 16.186C140.87 16.186 138.248 17.1279 136.415 18.9767C134.547 20.8256 133.649 23.3721 133.649 26.5814C133.649 29.5814 134.583 32.0232 136.379 33.8023C138.176 35.5465 140.619 36.4535 143.673 36.4535C146.87 36.4535 149.421 35.5116 151.253 33.6279C153.121 31.7442 154.02 29.2325 154.02 26.1279C154.02 23.0581 153.157 20.6162 151.397 18.8372C149.708 17.0581 147.229 16.186 144.14 16.186ZM147.876 31.0465C147.014 32.1279 145.649 32.6511 143.96 32.6511C142.271 32.6511 140.906 32.1279 139.936 30.9767C138.966 29.8953 138.499 28.3255 138.499 26.3372C138.499 24.279 139.002 22.7093 139.936 21.593C140.906 20.4767 142.236 19.9186 143.924 19.9186C145.577 19.9186 146.87 20.4418 147.804 21.5232C148.738 22.6046 149.241 24.1744 149.241 26.2325C149.169 28.3255 148.774 29.9651 147.876 31.0465ZM164.439 24.6279C162.966 24.0349 162.031 23.5814 161.6 23.1976C161.241 22.8488 161.061 22.3604 161.061 21.7325C161.061 21.2093 161.277 20.686 161.816 20.3372C162.355 19.9883 162.966 19.8139 163.864 19.8139C164.654 19.8139 165.48 19.9535 166.271 20.1628C167.061 20.3721 167.78 20.686 168.355 21.1046L168.534 21.2442V16.9883L168.426 16.9535C167.888 16.7442 167.169 16.5349 166.307 16.3604C165.444 16.2209 164.654 16.1511 164.007 16.1511C161.78 16.1511 159.948 16.6744 158.511 17.8255C157.073 18.9069 156.391 20.3721 156.391 22.0814C156.391 22.9883 156.535 23.7907 156.858 24.4535C157.181 25.1162 157.648 25.7442 158.295 26.2674C158.942 26.7558 159.876 27.3139 161.169 27.8372C162.247 28.2907 163.073 28.6395 163.576 28.9186C164.079 29.1976 164.403 29.5116 164.654 29.7558C164.834 30.0349 164.941 30.3837 164.941 30.8372C164.941 32.1279 163.936 32.7558 161.888 32.7558C161.097 32.7558 160.271 32.6162 159.301 32.3023C158.331 31.9883 157.433 31.5349 156.678 31.0116L156.499 30.8721V35.3023L156.606 35.3372C157.289 35.6511 158.115 35.8604 159.121 36.1046C160.127 36.279 161.025 36.4186 161.816 36.4186C164.223 36.4186 166.199 35.8953 167.6 34.7442C169.037 33.6279 169.792 32.1976 169.792 30.3488C169.792 29.0581 169.432 27.9069 168.642 27.0349C167.6 26.1976 166.307 25.3255 164.439 24.6279ZM182.115 16.186C178.845 16.186 176.223 17.1279 174.39 18.9767C172.558 20.8256 171.624 23.3721 171.624 26.5814C171.624 29.5814 172.558 32.0232 174.354 33.8023C176.151 35.5465 178.594 36.4535 181.648 36.4535C184.845 36.4535 187.396 35.5116 189.228 33.6279C191.096 31.7442 191.995 29.2325 191.995 26.1279C191.995 23.0581 191.132 20.6162 189.372 18.8372C187.683 17.0581 185.204 16.186 182.115 16.186ZM185.815 31.0465C184.953 32.1279 183.588 32.6511 181.899 32.6511C180.175 32.6511 178.845 32.1279 177.875 30.9767C176.905 29.8953 176.438 28.3255 176.438 26.3372C176.438 24.279 176.941 22.7093 177.875 21.593C178.845 20.4767 180.175 19.9186 181.863 19.9186C183.48 19.9186 184.809 20.4418 185.743 21.5232C186.677 22.6046 187.18 24.1744 187.18 26.2325C187.18 28.3255 186.713 29.9651 185.815 31.0465ZM216.964 20.3372V16.6046H212.258V10.8837L212.114 10.9186L207.659 12.2093L207.551 12.2442V16.6046H200.509V14.1628C200.509 13.0465 200.797 12.1744 201.3 11.6162C201.803 11.0581 202.557 10.779 203.491 10.779C204.138 10.779 204.821 10.9186 205.575 11.2325L205.755 11.3372V7.39532L205.647 7.36043C205 7.15113 204.138 7.0116 203.024 7.0116C201.623 7.0116 200.402 7.32555 199.288 7.84881C198.174 8.44183 197.348 9.24415 196.737 10.3255C196.126 11.3721 195.803 12.5581 195.803 13.9186V16.6046H192.534V20.3023H195.803V35.9302H200.509V20.3372H207.551V30.279C207.551 34.3604 209.527 36.4186 213.479 36.4186C214.126 36.4186 214.808 36.3139 215.455 36.2093C216.138 36.0697 216.641 35.8953 216.928 35.7558L216.964 35.7209V31.9883L216.784 32.1279C216.497 32.3023 216.245 32.4418 215.814 32.5465C215.455 32.6511 215.132 32.686 214.88 32.686C213.946 32.686 213.299 32.4767 212.832 31.9535C212.401 31.4651 212.186 30.6628 212.186 29.4767V20.3372H216.964Z" fill="#737373"/>
<path id="Vector_2" d="M0 0H22.0233V21.3837H0V0Z" fill="#F25022"/>
<path id="Vector_3" d="M24.3225 0H46.3459V21.3837H24.3225V0Z" fill="#7FBA00"/>
<path id="Vector_4" d="M0 23.6163H22.0233V45.0001H0V23.6163Z" fill="#00A4EF"/>
<path id="Vector_5" d="M24.3225 23.6163H46.3459V45.0001H24.3225V23.6163Z" fill="#FFB900"/>
</g>
<defs>
<clipPath id="clip0_1180_987">
<rect width="217" height="45" fill="white"/>
</clipPath>
</defs>
</svg>
