<svg width="160" height="50" viewBox="0 0 160 50" fill="none" xmlns="http://www.w3.org/2000/svg">
<g id="Airbnb Logo" style="mix-blend-mode:luminosity" clip-path="url(#clip0_1180_967)">
<path id="Vector" d="M45.8659 35.4363C45.6149 34.8269 45.3796 34.1863 45.1287 33.6394L43.9679 31.0301L43.9208 30.9832C40.4698 23.4832 36.7836 15.8582 32.8777 8.35819L32.7208 8.04569C32.3287 7.31132 31.9365 6.49881 31.5287 5.74881C31.0267 4.85819 30.5404 3.90506 29.7404 2.99881C28.9606 2.05058 27.9792 1.28661 26.867 0.762025C25.7549 0.237442 24.5396 -0.034668 23.3091 -0.034668C22.0785 -0.034668 20.8633 0.237442 19.7511 0.762025C18.6389 1.28661 17.6575 2.05058 16.8777 2.99881C16.1404 3.90506 15.5914 4.85819 15.0894 5.74881C14.6973 6.56131 14.3051 7.35819 13.8973 8.09256L13.7404 8.40507C9.89729 15.9051 6.14827 23.5301 2.69729 31.0301L2.60318 31.1238C2.25808 31.9363 1.85023 32.7801 1.45808 33.6863C1.2071 34.2332 0.956117 34.8269 0.705136 35.4832C0.0275406 37.2016 -0.188837 39.0662 0.0773282 40.8933C0.343494 42.7204 1.08302 44.4469 2.22301 45.9026C3.363 47.3583 4.86413 48.493 6.57843 49.1948C8.29273 49.8967 10.1611 50.1415 11.9993 49.9051C13.7616 49.674 15.4585 49.0893 16.9875 48.1863C19.0267 47.0457 20.9875 45.3894 23.1836 42.9988C25.3796 45.3894 27.3875 47.0457 29.3796 48.2019C31.2954 49.322 33.4649 49.9402 35.6855 49.9988C38.2571 50.0094 40.7456 49.093 42.6918 47.4187C44.6379 45.7444 45.9102 43.4252 46.2738 40.8894C46.6939 39.0672 46.5518 37.1611 45.8659 35.4207V35.4363ZM23.3404 38.0301C20.6424 34.5926 18.8855 31.4363 18.2894 28.7332C18.0425 27.7315 17.9893 26.6922 18.1326 25.6707C18.2424 24.8738 18.5404 24.1707 18.9483 23.5769C19.8894 22.2176 21.5365 21.3738 23.3404 21.3738C24.1971 21.3477 25.0469 21.534 25.8135 21.9158C26.5801 22.2976 27.2395 22.863 27.7326 23.5613C28.1404 24.1863 28.4385 24.8738 28.5326 25.6707C28.6895 26.5769 28.6267 27.6238 28.3757 28.7332C27.7796 31.3894 26.0228 34.5769 23.3404 38.0301ZM43.3247 40.3426C43.1465 41.63 42.6327 42.8484 41.8346 43.8765C41.0365 44.9045 39.9818 45.7063 38.7757 46.2019C37.5836 46.7019 36.2659 46.8426 34.9796 46.7019C33.7247 46.5457 32.4698 46.1394 31.1836 45.3894C29.0479 44.0746 27.1275 42.441 25.4895 40.5457C28.7836 36.4832 30.7757 32.7801 31.5287 29.4832C31.8895 27.9207 31.9365 26.5144 31.7796 25.2176C31.5838 23.9883 31.1236 22.8157 30.4306 21.7801C29.6394 20.657 28.5833 19.7448 27.3552 19.1236C26.1271 18.5024 24.7646 18.1913 23.3875 18.2176C20.4855 18.2176 17.8973 19.5613 16.3287 21.7644C15.6225 22.7975 15.1662 23.9794 14.9953 25.2176C14.7914 26.5301 14.8385 27.9832 15.2463 29.4832C15.9993 32.7801 18.0385 36.5301 21.2855 40.5769C19.6753 42.5084 17.7504 44.1564 15.5914 45.4519C14.2894 46.2019 13.0502 46.5926 11.7953 46.7488C9.84378 46.9978 7.87243 46.4695 6.30978 45.2787C4.74713 44.0879 3.71949 42.3308 3.45023 40.3894C3.29337 39.1394 3.40318 37.8894 3.90514 36.4832C4.062 35.9832 4.29729 35.4832 4.54827 34.8894C4.89337 34.0769 5.30121 33.2332 5.69337 32.3894L5.75612 32.2801C9.14435 24.8269 12.8463 17.2176 16.6894 9.76444L16.8463 9.45194C17.2385 8.70194 17.6306 7.90506 18.0385 7.15506C18.4463 6.35819 18.8855 5.59256 19.4502 4.96756C19.939 4.38635 20.5498 3.91893 21.2395 3.59822C21.9293 3.2775 22.6812 3.1113 23.4424 3.1113C24.2036 3.1113 24.9555 3.2775 25.6452 3.59822C26.335 3.91893 26.9457 4.38635 27.4345 4.96756C27.9836 5.59256 28.4385 6.35819 28.8463 7.15506C29.2385 7.90506 29.6306 8.71757 30.0385 9.45194L30.1953 9.76444C34.0228 17.2176 37.7247 24.8269 41.1757 32.2801L41.2228 32.3269C41.6306 33.1394 41.9757 34.0457 42.3679 34.8269C42.6189 35.4363 42.8698 35.9207 43.0267 36.4363C43.3247 37.8426 43.4816 39.0926 43.3247 40.3426ZM65.16 37.6863C63.978 37.7035 62.8073 37.4555 61.7346 36.9605C60.662 36.4655 59.715 35.7363 58.964 34.8269C57.2762 32.8894 56.3805 30.3911 56.4542 27.8269C56.4283 25.207 57.353 22.6658 59.0581 20.6707C59.8468 19.7498 60.8286 19.0123 61.9343 18.5102C63.0401 18.0081 64.2429 17.7535 65.4581 17.7644C66.6015 17.7333 67.7341 17.9923 68.7494 18.517C69.7647 19.0418 70.6293 19.8152 71.262 20.7644L71.4189 18.3113H75.9993V37.1863H71.4032L71.2463 34.4363C70.594 35.4498 69.6925 36.2805 68.6272 36.8493C67.562 37.4181 66.3685 37.7062 65.16 37.6863ZM66.3522 33.1863C67.262 33.1863 68.062 32.9363 68.8149 32.4832C69.5051 31.9832 70.0698 31.3269 70.5091 30.5301C70.9012 29.7332 71.1051 28.7801 71.1051 27.7176C71.1663 26.7947 70.9859 25.8719 70.5818 25.0393C70.1776 24.2067 69.5634 23.4929 68.7992 22.9676C68.065 22.5119 67.2173 22.2703 66.3522 22.2703C65.4871 22.2703 64.6394 22.5119 63.9051 22.9676C63.2149 23.4676 62.6502 24.1238 62.211 24.9207C61.7962 25.7995 61.5921 26.7623 61.6149 27.7332C61.5538 28.656 61.7341 29.5788 62.1383 30.4114C62.5425 31.244 63.1567 31.9579 63.9208 32.4832C64.6581 32.9363 65.4581 33.1863 66.3522 33.1863ZM83.8424 13.2176C83.8424 13.7644 83.7483 14.2644 83.4973 14.6707C83.2463 15.0613 82.9012 15.4207 82.4463 15.6707C81.9914 15.9207 81.5051 16.0144 81.0032 16.0144C80.5012 16.0144 79.9992 15.9207 79.5443 15.6707C79.1141 15.4321 78.7523 15.0879 78.4934 14.6707C78.2504 14.2256 78.1313 13.7239 78.1483 13.2176C78.1483 12.6551 78.2581 12.1551 78.4934 11.7644C78.7443 11.2957 79.1051 11.0144 79.5443 10.7644C79.9992 10.5144 80.4855 10.4051 81.0032 10.4051C81.5025 10.3936 81.9962 10.5114 82.4361 10.7469C82.8761 10.9825 83.2471 11.3277 83.513 11.7488C83.7413 12.2044 83.8543 12.7086 83.8424 13.2176ZM78.509 37.1238V18.2801H83.4973V37.1551H78.4934L78.509 37.1238ZM96.8306 23.2176V23.2801C96.5953 23.1707 96.2816 23.1238 96.0463 23.0769C95.7326 23.0144 95.4816 23.0144 95.1836 23.0144C93.7875 23.0144 92.7365 23.4207 92.0463 24.2644C91.2934 25.1238 90.9483 26.3269 90.9483 27.8738V37.1394H85.9443V18.2644H90.5404L90.6973 21.1238C91.1992 20.1238 91.7953 19.3738 92.6424 18.8113C93.4849 18.2648 94.4769 17.9918 95.4816 18.0301C95.8424 18.0301 96.1875 18.0613 96.4855 18.1238C96.6424 18.1707 96.7365 18.1707 96.8306 18.2176V23.2176ZM98.8385 37.1238V10.5301H103.827V20.6863C104.533 19.7801 105.333 19.0769 106.337 18.5301C107.926 17.7539 109.731 17.5337 111.462 17.9051C113.192 18.2764 114.746 19.2177 115.874 20.5769C117.565 22.5185 118.461 25.023 118.384 27.5926C118.409 30.2125 117.485 32.7537 115.78 34.7488C114.991 35.6697 114.009 36.4072 112.903 36.9093C111.798 37.4114 110.595 37.666 109.38 37.6551C108.236 37.6862 107.104 37.4273 106.088 36.9025C105.073 36.3777 104.208 35.6043 103.576 34.6551L103.419 37.1082L98.8385 37.1551V37.1238ZM108.486 33.1863C109.38 33.1863 110.18 32.9363 110.933 32.4832C111.623 31.9832 112.187 31.3269 112.627 30.5301C113.035 29.7332 113.223 28.7801 113.223 27.7176C113.223 26.6707 113.035 25.7176 112.627 24.9207C112.215 24.1523 111.636 23.4851 110.933 22.9676C110.198 22.5119 109.351 22.2703 108.486 22.2703C107.62 22.2703 106.773 22.5119 106.038 22.9676C105.333 23.4676 104.784 24.1238 104.329 24.9207C103.914 25.7995 103.71 26.7623 103.733 27.7332C103.671 28.656 103.852 29.5788 104.256 30.4114C104.66 31.244 105.274 31.9579 106.038 32.4832C106.776 32.9363 107.576 33.1863 108.486 33.1863ZM120.266 37.1394V18.2644H124.862L125.019 20.7176C125.596 19.7772 126.416 19.0077 127.392 18.4885C128.368 17.9693 129.466 17.7193 130.572 17.7644C131.836 17.7427 133.079 18.0927 134.145 18.7709C135.211 19.449 136.052 20.425 136.564 21.5769C137.113 22.7644 137.411 24.2332 137.411 25.8738V37.1863H132.407V26.5301C132.407 25.2176 132.109 24.1863 131.513 23.4207C130.917 22.6707 130.101 22.2644 129.066 22.2644C128.313 22.2644 127.654 22.4207 127.074 22.7644C126.525 23.1238 126.07 23.5769 125.725 24.2176C125.376 24.8651 125.203 25.5923 125.223 26.3269V37.1394H120.266ZM139.905 37.1394V10.5144H144.909V20.6707C145.587 19.7594 146.469 19.018 147.484 18.5054C148.5 17.9928 149.621 17.723 150.76 17.7176C151.942 17.7003 153.113 17.9484 154.185 18.4434C155.258 18.9384 156.205 19.6676 156.956 20.5769C158.636 22.5184 159.525 25.0153 159.45 27.5769C159.477 30.1972 158.553 32.7388 156.846 34.7332C156.058 35.6541 155.076 36.3916 153.97 36.8937C152.864 37.3958 151.661 37.6504 150.446 37.6394C149.303 37.6706 148.17 37.4116 147.155 36.8868C146.14 36.362 145.275 35.5887 144.642 34.6394L144.501 37.0926L139.905 37.1394ZM149.599 33.1863C150.509 33.1863 151.309 32.9363 152.046 32.4832C152.752 31.9832 153.301 31.3269 153.756 30.5301C154.148 29.7332 154.352 28.7801 154.352 27.7176C154.413 26.7947 154.233 25.8719 153.829 25.0393C153.425 24.2067 152.81 23.4929 152.046 22.9676C151.312 22.5119 150.464 22.2703 149.599 22.2703C148.734 22.2703 147.886 22.5119 147.152 22.9676C146.462 23.4676 145.897 24.1238 145.458 24.9207C145.02 25.7917 144.815 26.7603 144.862 27.7332C144.801 28.656 144.981 29.5788 145.385 30.4114C145.79 31.244 146.404 31.9579 147.168 32.4832C147.905 32.9363 148.658 33.1863 149.599 33.1863Z" fill="#FF385C"/>
</g>
<defs>
<clipPath id="clip0_1180_967">
<rect width="160" height="50" fill="white"/>
</clipPath>
</defs>
</svg>
