<svg width="64" height="64" viewBox="0 0 64 64" fill="none" xmlns="http://www.w3.org/2000/svg">
<g id="Group 49">
<rect id="Rectangle 9" width="64" height="64" rx="8" fill="#272727"/>
<g id="MegaphoneSimple">
<path id="Vector" d="M53 15.0907V45.4095C53.0003 45.6805 52.9376 45.948 52.8169 46.1907C52.6962 46.4334 52.5207 46.6447 52.3044 46.808C52.088 46.9713 51.8367 47.0822 51.5702 47.1318C51.3037 47.1814 51.0294 47.1684 50.7687 47.0938L12.2688 35.872C11.9029 35.7673 11.5811 35.5463 11.3522 35.2423C11.1232 34.9384 10.9996 34.5681 11 34.1876V26.3126C10.9996 25.9321 11.1232 25.5618 11.3522 25.2578C11.5811 24.9539 11.9029 24.7329 12.2688 24.6282L50.7687 13.4063C51.0294 13.3318 51.3037 13.3188 51.5702 13.3684C51.8367 13.418 52.088 13.5288 52.3044 13.6922C52.5207 13.8555 52.6962 14.0668 52.8169 14.3095C52.9376 14.5522 53.0003 14.8196 53 15.0907Z" stroke="#FC5F45" stroke-width="2" stroke-linecap="round" stroke-linejoin="round"/>
<path id="Vector_2" d="M19.75 38.0597V46.0003C19.75 46.4644 19.9344 46.9095 20.2626 47.2377C20.5908 47.5659 21.0359 47.7503 21.5 47.7503H28.5C28.9641 47.7503 29.4092 47.5659 29.7374 47.2377C30.0656 46.9095 30.25 46.4644 30.25 46.0003V19.3784" stroke="#FC5F45" stroke-width="2" stroke-linecap="round" stroke-linejoin="round"/>
</g>
</g>
</svg>
