<svg width="198" height="45" viewBox="0 0 198 45" fill="none" xmlns="http://www.w3.org/2000/svg">
<g id="Walmart Logo" style="mix-blend-mode:luminosity" clip-path="url(#clip0_1180_993)">
<path id="Shape" d="M70.4629 16.0059V18.5561H70.5432C71.489 17.1907 73.0591 15.5827 76.5393 15.5827C79.2468 15.5827 81.3238 16.9199 82.2139 18.9398H82.2943C83.0546 17.9186 83.9262 17.1456 84.9028 16.5983C86.0588 15.9495 87.3445 15.5771 88.9641 15.5771C92.6297 15.5771 95.875 17.8904 95.875 23.7243V34.7886H90.2869V24.4973C90.2869 21.5408 89.1866 19.8313 86.8995 19.8313C85.2243 19.8313 84.0065 20.8581 83.5429 22.122C83.3822 22.5564 83.308 23.1488 83.308 23.6453V34.7942H77.7199V24.0798C77.7199 21.569 76.6629 19.8256 74.4067 19.8256C72.6017 19.8256 71.4705 21.1233 71.0068 22.2348C70.809 22.7087 70.7472 23.256 70.7472 23.7695V34.7886H65.153V16.0059H70.4629ZM124.718 16.0059V19.5491H124.872C125.899 16.8409 128.334 15.5827 130.473 15.5827C131.011 15.5827 131.307 15.6222 131.74 15.7012V20.6212C131.227 20.5534 130.751 20.4857 130.083 20.4857C127.66 20.4857 125.973 21.7721 125.546 23.7864C125.453 24.2039 125.423 24.6553 125.423 25.1744V34.7942H119.686V16.0059H124.718ZM139.529 9.78259V15.6956H144.375V20.4801H139.529V27.5384C139.529 29.8235 140.165 30.9293 142.057 30.9293C142.947 30.9293 143.602 30.8278 144.171 30.698L144.245 34.6644C143.485 34.924 141.865 35.2061 140.221 35.2061C138.286 35.2061 136.673 34.5911 135.69 33.6376C134.565 32.5486 134.046 30.7657 134.046 28.2268V9.78259H139.529ZM61.2586 34.7886H55.6953V9.78259H61.2586V34.7886ZM46.423 28.0801C46.423 28.4242 46.3921 28.7853 46.287 29.0956C45.8543 30.399 44.377 31.4992 42.5349 31.4992C40.9957 31.4992 39.7717 30.7037 39.7717 29.0167C39.7717 26.4382 42.8872 25.7216 46.4292 25.7386V28.0801H46.423ZM51.9802 23.5833C51.9802 19.3235 49.9898 15.5827 43.2581 15.5827C39.8027 15.5827 37.0581 16.4685 35.5621 17.2584L36.6563 20.6776C38.0224 19.8877 40.2044 19.2388 42.2691 19.2388C45.6874 19.2332 46.2438 21.0048 46.2438 22.1389V22.4097C38.7951 22.3984 34.091 24.7512 34.091 29.547C34.091 32.4753 36.4832 35.2174 40.6495 35.2174C43.2148 35.2174 45.3536 34.2864 46.6394 32.7913H46.763C46.763 32.7913 47.6161 36.0355 52.3016 34.7942C52.0544 33.4401 51.974 32.0014 51.974 30.2692V23.5833H51.9802ZM6.14441 9.78259C6.71929 12.4288 8.3512 20.1134 8.3512 20.1134C9.03735 23.273 9.66786 26.5849 10.1438 29.2029H10.2304C10.694 26.4213 11.4234 23.7864 12.2023 20.5252L14.953 9.78259H21.0418L23.6133 20.8017C24.2871 23.8654 24.8249 26.2294 25.2514 29.0787H25.3318C25.7954 26.2012 26.4012 23.7413 27.0626 20.5929L29.5352 9.78259H35.3767L28.1382 34.7886C23.5268 35.7082 21.7589 34.0156 21.1284 31.3299C20.4978 28.6386 19.2615 23.5212 19.2615 23.5212C18.6248 20.7171 18.1303 18.7423 17.7842 15.8648H17.6976C17.2031 18.7141 16.6839 20.7114 15.9174 23.5156L12.8822 34.7942C8.17194 35.6518 6.54002 34.3823 5.63752 30.935C4.85866 27.9841 0 9.78824 0 9.78824H6.14441V9.78259ZM110.414 28.0801C110.414 28.4242 110.383 28.7853 110.278 29.0956C109.845 30.399 108.368 31.4992 106.526 31.4992C104.987 31.4992 103.763 30.7037 103.763 29.0167C103.763 26.4382 106.878 25.7216 110.42 25.7386V28.0801H110.414ZM115.971 23.5833C115.971 19.3235 113.981 15.5827 107.249 15.5827C103.793 15.5827 101.049 16.4685 99.553 17.2584L100.647 20.6776C102.013 19.8877 104.195 19.2388 106.26 19.2388C109.672 19.2332 110.235 21.0048 110.235 22.1389V22.4097C102.792 22.3984 98.088 24.7512 98.088 29.547C98.088 32.4753 100.486 35.2174 104.647 35.2174C107.206 35.2174 109.351 34.2864 110.63 32.7913H110.76C110.76 32.7913 111.613 36.0355 116.299 34.7942C116.051 33.4401 115.971 32.0014 115.971 30.2692V23.5833Z" fill="#041E42"/>
<path id="Shape_2" d="M166.927 26.1764C167.475 27.0896 167.438 28.1088 166.853 28.5742L156.736 35.3555C155.682 35.9387 154.105 35.2317 153.211 33.7529C152.312 32.2683 152.472 30.6127 153.525 30.0295L164.727 25.0452C165.43 24.7859 166.379 25.2632 166.927 26.1764ZM180.242 26.1764C180.797 25.2632 181.739 24.7918 182.442 25.0393L193.65 30.0236C194.704 30.6068 194.858 32.2624 193.964 33.7471C193.065 35.2258 191.481 35.9269 190.434 35.3496L180.316 28.5683C179.737 28.1088 179.694 27.0837 180.242 26.1764ZM173.581 29.8527C174.684 29.8527 175.59 30.3947 175.713 31.1076L176.804 42.879C176.804 44.0456 175.381 45 173.588 45C171.801 45 170.371 44.0456 170.371 42.879L171.456 31.1076C171.579 30.3947 172.485 29.8527 173.581 29.8527ZM180.316 16.4317L190.434 9.64454C191.481 9.06127 193.065 9.76237 193.964 11.2471C194.858 12.7317 194.704 14.3873 193.65 14.9705L182.442 19.9607C181.739 20.2082 180.791 19.7368 180.242 18.8236C179.694 17.9104 179.737 16.8912 180.316 16.4317ZM164.727 19.9607L153.525 14.9705C152.478 14.3873 152.318 12.7317 153.211 11.2471C154.105 9.76237 155.688 9.06127 156.736 9.64454L166.853 16.4317C167.438 16.8853 167.475 17.9104 166.927 18.8236C166.379 19.7368 165.43 20.2082 164.727 19.9607ZM171.456 13.8924L170.371 2.12097C170.371 0.954438 171.795 0 173.588 0C175.381 0 176.804 0.954438 176.804 2.12097L175.713 13.8924C175.59 14.5994 174.684 15.1473 173.581 15.1473C172.485 15.1473 171.579 14.5994 171.456 13.8924ZM196.7 35.3083V35.0137H196.977C197.07 35.0137 197.131 35.0727 197.131 35.161C197.131 35.2435 197.07 35.3083 196.977 35.3083H196.7ZM196.472 35.8445C196.472 35.8739 196.497 35.9034 196.534 35.9034H196.651C196.681 35.9034 196.712 35.8739 196.712 35.8445V35.5086H196.903L197.057 35.8621C197.07 35.8857 197.088 35.9034 197.113 35.9034H197.254C197.298 35.9034 197.328 35.8621 197.31 35.8209C197.254 35.7148 197.199 35.6029 197.144 35.491C197.236 35.4615 197.378 35.3731 197.378 35.161C197.378 34.9372 197.187 34.8075 196.996 34.8075H196.534C196.503 34.8075 196.472 34.837 196.472 34.8665V35.8445ZM195.973 35.3555C195.973 34.8782 196.38 34.4894 196.879 34.4894C197.378 34.4894 197.784 34.8723 197.784 35.3555C197.784 35.8327 197.384 36.2215 196.879 36.2215C196.373 36.2215 195.973 35.8327 195.973 35.3555ZM195.757 35.3555C195.757 35.9446 196.256 36.4277 196.879 36.4277C197.495 36.4277 198 35.9446 198 35.3555C198 34.7663 197.495 34.2832 196.879 34.2832C196.256 34.2832 195.757 34.7663 195.757 35.3555Z" fill="#FFC124"/>
</g>
<defs>
<clipPath id="clip0_1180_993">
<rect width="198" height="45" fill="white"/>
</clipPath>
</defs>
</svg>
